<?xml version="1.0" standalone="no"?>
<!DOCTYPE svg PUBLIC "-//W3C//DTD SVG 20010904//EN"
 "http://www.w3.org/TR/2001/REC-SVG-20010904/DTD/svg10.dtd">
<svg version="1.0" xmlns="http://www.w3.org/2000/svg"
 width="853.000000pt" height="1280.000000pt" viewBox="0 0 853.000000 1280.000000"
 preserveAspectRatio="xMidYMid meet">

<g transform="translate(0.000000,1280.000000) scale(0.100000,-0.100000)"
fill="#000000" stroke="none">
<path d="M0 6400 l0 -6400 4265 0 4265 0 0 6400 0 6400 -4265 0 -4265 0 0
-6400z m3848 4123 c-10 -2 -28 -2 -40 0 -13 2 -5 4 17 4 22 1 32 -1 23 -4z
m437 -93 c3 -5 1 -10 -4 -10 -6 0 -11 5 -11 10 0 6 2 10 4 10 3 0 8 -4 11 -10z
m550 -120 c3 -6 -1 -7 -9 -4 -18 7 -21 14 -7 14 6 0 13 -4 16 -10z m95 -92 c0
-6 -6 -5 -15 2 -8 7 -15 14 -15 16 0 2 7 1 15 -2 8 -4 15 -11 15 -16z m-533
-95 c-3 -10 -5 -4 -5 12 0 17 2 24 5 18 2 -7 2 -21 0 -30z m708 -51 c-3 -3
-11 0 -18 7 -9 10 -8 11 6 5 10 -3 15 -9 12 -12z m-1605 -22 c0 -5 -2 -10 -4
-10 -3 0 -8 5 -11 10 -3 6 -1 10 4 10 6 0 11 -4 11 -10z m776 -96 c37 -4 59
-2 69 6 18 15 72 4 84 -18 11 -20 93 -46 121 -39 16 4 19 1 14 -17 -6 -25 9
-41 46 -49 93 -19 170 -61 239 -127 20 -19 49 -43 64 -53 16 -10 36 -32 45
-47 9 -16 27 -33 39 -39 33 -15 55 -56 60 -108 2 -25 11 -61 19 -79 11 -23 14
-46 10 -69 -5 -27 -1 -43 20 -76 14 -23 27 -58 29 -79 3 -40 77 -178 101 -187
10 -4 13 -17 10 -49 -3 -29 0 -44 7 -44 8 0 13 -23 13 -63 2 -64 27 -205 43
-235 21 -39 32 -106 41 -250 5 -84 15 -172 21 -196 9 -38 8 -152 -3 -228 -3
-16 -5 -44 -6 -64 -2 -28 -6 -35 -17 -30 -10 3 -17 -3 -21 -20 -9 -34 2 -41
27 -18 l21 19 -6 -55 c-9 -69 -28 -140 -38 -140 -4 0 -8 -7 -8 -15 0 -8 5 -15
11 -15 6 0 9 -8 7 -17 -2 -10 -10 -18 -18 -18 -9 0 -16 -11 -18 -25 -2 -14 -6
-32 -9 -40 -4 -8 -8 -25 -9 -37 -4 -32 -73 -234 -88 -258 -7 -11 -19 -38 -26
-60 -7 -22 -16 -44 -21 -49 -5 -6 -9 -21 -9 -35 0 -29 -45 -110 -72 -129 -10
-7 -16 -17 -13 -22 3 -5 -10 -21 -30 -37 -19 -15 -35 -33 -35 -39 0 -6 -27
-35 -60 -65 -63 -57 -81 -96 -36 -79 34 13 153 19 163 9 5 -5 19 5 32 22 l24
32 14 -27 c8 -15 21 -86 29 -159 8 -73 19 -156 24 -186 6 -30 10 -143 10 -250
0 -108 7 -254 15 -326 17 -159 5 -356 -35 -555 -5 -25 -12 -72 -15 -105 -4
-33 -20 -112 -36 -175 -39 -155 -101 -532 -133 -815 -37 -328 -90 -717 -132
-975 -37 -224 -119 -644 -130 -662 -16 -26 -24 28 -44 297 -27 385 -75 861
-101 1010 -31 172 -94 418 -131 505 -18 41 -49 104 -71 139 -32 53 -37 68 -28
85 9 19 24 61 86 236 12 36 30 79 39 95 9 17 16 34 16 38 0 4 34 78 76 165 62
129 74 160 65 175 -14 21 -16 15 66 126 57 76 64 90 58 118 -9 49 17 90 65
104 27 8 47 23 59 43 15 24 123 233 139 268 4 7 -70 48 -88 48 -5 0 -10 -11
-10 -25 0 -14 -31 -84 -69 -157 -178 -345 -244 -458 -287 -492 -34 -27 -39
-28 -127 -25 -162 5 -368 -1 -362 -10 3 -5 -4 -12 -15 -16 -29 -9 -24 -31 15
-62 38 -30 47 -49 65 -138 7 -33 19 -81 27 -107 8 -26 12 -52 8 -58 -3 -5 1
-30 9 -54 9 -25 17 -87 18 -138 l3 -93 -32 -10 c-18 -5 -33 -13 -33 -17 0 -13
-40 -9 -41 5 -4 48 5 105 18 119 12 14 13 21 4 32 -7 8 -14 47 -17 88 -3 40
-12 87 -20 105 -8 17 -14 36 -14 42 0 6 -4 11 -8 11 -5 0 -15 11 -22 25 -7 14
-17 25 -21 25 -19 0 -99 56 -108 76 -9 21 -8 22 67 21 88 -1 103 14 52 51 -40
30 -41 68 -2 84 l27 12 -33 4 c-18 2 -55 -1 -82 -7 -39 -9 -57 -7 -101 9 -30
10 -82 24 -117 31 -48 10 -66 19 -79 39 -9 14 -81 104 -159 201 -78 97 -143
182 -145 188 -3 7 -12 9 -21 6 -36 -14 -28 -37 44 -120 198 -226 282 -337 274
-363 -4 -11 16 -59 54 -127 33 -61 60 -113 60 -116 0 -4 47 -95 104 -202 138
-259 134 -246 107 -343 -11 -43 -33 -126 -47 -184 -14 -58 -41 -168 -60 -245
-60 -241 -65 -295 -71 -891 -5 -514 -1 -656 17 -594 6 19 8 13 8 -25 0 -27 -2
-42 -5 -33 -8 32 -20 19 -18 -19 1 -27 6 -37 16 -35 11 3 12 1 2 -9 -14 -14
-18 -81 -6 -93 11 -10 13 -146 2 -146 -5 0 -9 -5 -9 -11 0 -5 4 -8 9 -4 11 6
21 -61 18 -117 -3 -63 -22 -36 -25 36 -2 52 -6 67 -16 63 -14 -6 -19 15 -86
373 -16 85 -50 238 -75 340 -25 102 -52 214 -60 250 -8 36 -30 135 -50 220
-85 367 -175 775 -200 905 -57 302 -107 545 -138 660 -28 105 -35 120 -55 123
-12 2 -26 11 -31 20 -11 20 -26 129 -41 300 -6 68 -20 156 -30 195 -11 40 -20
98 -20 130 0 31 -7 101 -14 155 -32 209 -47 432 -41 586 10 235 30 293 74 209
10 -21 31 -49 45 -62 21 -20 30 -22 48 -14 21 9 55 -2 78 -27 3 -3 17 -12 31
-20 15 -8 51 -31 80 -51 71 -47 117 -69 144 -69 12 0 35 -11 50 -24 16 -14 48
-31 72 -38 24 -7 43 -15 43 -19 0 -9 66 -28 165 -45 135 -25 294 -28 400 -9
50 9 111 18 137 20 25 2 79 16 120 31 40 15 89 33 109 40 49 18 111 52 125 69
5 8 22 17 37 20 30 8 35 20 12 29 -8 3 -21 -2 -30 -10 -9 -10 -35 -17 -65 -17
-28 -1 -50 -6 -50 -10 0 -5 5 -5 12 -1 7 5 8 3 4 -5 -6 -9 -13 -8 -27 5 -14
12 -16 21 -9 29 14 16 -37 58 -59 50 -8 -3 -34 -10 -59 -16 -24 -5 -53 -14
-62 -19 -10 -5 -44 -12 -76 -14 -33 -3 -77 -12 -98 -21 -21 -9 -49 -14 -62
-11 -13 4 -43 1 -66 -5 -64 -16 -98 -20 -148 -18 -25 0 -54 1 -65 1 -37 -1
-150 21 -163 31 -10 8 -11 4 -2 -17 5 -15 10 -29 10 -32 0 -7 -80 4 -175 22
-76 15 -100 24 -170 61 -16 9 -38 20 -49 26 -122 60 -140 83 -85 111 27 13 31
13 36 -1 5 -14 7 -13 15 1 10 17 3 36 -13 36 -15 0 -150 107 -220 175 -41 40
-79 89 -100 130 -22 42 -40 65 -51 65 -10 0 -18 6 -18 14 0 8 -7 22 -16 31 -9
9 -14 18 -11 21 5 5 -22 63 -52 114 -12 20 -35 105 -57 212 -15 69 -23 89 -41
99 -31 17 -36 36 -16 66 13 20 14 29 5 44 -7 10 -12 28 -12 39 0 11 -7 31 -15
43 -8 13 -13 40 -12 65 1 23 -2 43 -7 45 -8 3 -20 253 -20 432 0 66 24 205 40
230 6 11 17 44 23 73 6 29 18 67 27 84 13 25 14 38 4 75 -9 38 -8 49 5 69 8
13 15 27 15 31 0 4 -4 1 -10 -7 -5 -8 -12 -11 -16 -8 -8 8 32 92 52 108 7 7
14 27 14 45 0 20 8 39 21 51 17 15 20 26 15 56 -5 30 -3 38 9 38 11 0 15 10
15 35 0 20 12 58 26 86 14 28 23 53 21 56 -6 6 27 92 55 142 25 43 81 112 140
170 23 22 38 47 40 66 2 24 7 30 26 28 15 -2 22 3 22 15 1 17 67 72 105 86 11
5 63 12 115 16 107 10 245 49 277 80 12 11 28 20 35 20 7 0 61 11 118 24 58
13 155 29 215 36 137 16 152 22 102 46 -58 27 -45 48 30 46 23 0 46 5 50 11 4
7 10 0 15 -15 8 -23 17 -28 64 -34z m24 36 c0 -5 -2 -10 -4 -10 -3 0 -8 5 -11
10 -3 6 -1 10 4 10 6 0 11 -4 11 -10z m165 -40 c-3 -5 -10 -10 -16 -10 -5 0
-9 5 -9 10 0 6 7 10 16 10 8 0 12 -4 9 -10z m480 -240 c3 -5 2 -10 -4 -10 -5
0 -13 5 -16 10 -3 6 -2 10 4 10 5 0 13 -4 16 -10z m-2040 -69 c-25 -50 -41
-68 -52 -57 -7 7 56 106 68 106 5 0 -2 -22 -16 -49z m-92 4 c-3 -9 -8 -14 -10
-11 -3 3 -2 9 2 15 9 16 15 13 8 -4z m-39 -90 c-30 -60 -44 -76 -44 -51 0 9 4
16 8 16 4 0 14 17 21 38 15 41 31 65 39 58 2 -3 -8 -31 -24 -61z m-54 -41 c0
-8 -5 -12 -10 -9 -6 4 -8 11 -5 16 9 14 15 11 15 -7z m-29 -57 c-8 -8 -11 -7
-11 4 0 20 13 34 18 19 3 -7 -1 -17 -7 -23z m-340 -100 c-10 -9 -11 -8 -5 6 3
10 9 15 12 12 3 -3 0 -11 -7 -18z m3139 -348 c0 -10 -4 -19 -10 -19 -5 0 -10
12 -10 26 0 14 4 23 10 19 6 -3 10 -15 10 -26z m140 -85 c0 -8 -5 -12 -10 -9
-6 4 -8 11 -5 16 9 14 15 11 15 -7z m-107 -9 c-3 -9 -8 -14 -10 -11 -3 3 -2 9
2 15 9 16 15 13 8 -4z m-3256 -72 c-2 -16 -4 -5 -4 22 0 28 2 40 4 28 2 -13 2
-35 0 -50z m20 -175 c-3 -8 -6 -5 -6 6 -1 11 2 17 5 13 3 -3 4 -12 1 -19z m0
-70 c-3 -8 -6 -5 -6 6 -1 11 2 17 5 13 3 -3 4 -12 1 -19z m3358 -101 c10 -34
14 -69 9 -103 -3 -28 -1 -67 4 -86 6 -23 7 -98 2 -204 -7 -135 -14 -185 -33
-249 -14 -44 -28 -96 -31 -115 -10 -59 -108 -150 -161 -150 -8 0 -15 6 -15 13
-1 147 -11 550 -14 555 -8 13 11 303 20 312 22 20 54 21 70 2 16 -20 18 -19
65 15 30 21 49 42 49 55 0 33 19 9 35 -45z m-3293 -90 c-6 -7 -8 -17 -4 -23 9
-14 66 -29 58 -15 -11 18 15 23 33 7 10 -9 22 -16 28 -16 36 0 82 -104 82
-185 0 -16 5 -86 11 -155 5 -69 14 -197 20 -285 6 -88 13 -184 16 -212 6 -52
5 -53 -20 -53 -30 0 -111 69 -122 103 -3 12 -26 63 -49 112 -111 231 -163 640
-92 721 16 18 54 19 39 1z m2163 -1984 c11 -29 -53 -70 -69 -44 -6 10 38 61
52 61 6 0 13 -8 17 -17z m-95 -27 c0 -3 -4 -8 -10 -11 -5 -3 -10 -1 -10 4 0 6
5 11 10 11 6 0 10 -2 10 -4z m-22 -33 c2 -9 -7 -13 -25 -13 -16 0 -36 -9 -46
-20 -19 -23 -39 -25 -69 -9 -11 6 -18 7 -14 1 8 -14 -74 -39 -104 -32 l-24 6
24 17 c13 9 39 17 57 17 18 0 33 5 33 11 0 5 4 8 8 5 5 -3 20 1 35 9 46 24
118 28 125 8z m-330 -62 c11 -7 11 -9 -2 -14 -9 -4 -23 -4 -32 0 -13 5 -13 7
-2 14 7 5 15 9 18 9 3 0 11 -4 18 -9z m-101 -7 c-3 -3 -12 -4 -19 -1 -8 3 -5
6 6 6 11 1 17 -2 13 -5z m3648 -773 c-6 -5 -25 10 -25 20 0 5 6 4 14 -3 8 -7
12 -15 11 -17z m-6798 -47 c-3 -3 -12 -4 -19 -1 -8 3 -5 6 6 6 11 1 17 -2 13
-5z m6971 -59 c-3 -3 -9 2 -12 12 -6 14 -5 15 5 6 7 -7 10 -15 7 -18z m49
-187 c-3 -8 -6 -5 -6 6 -1 11 2 17 5 13 3 -3 4 -12 1 -19z m-7310 -45 c-3 -10
-5 -4 -5 12 0 17 2 24 5 18 2 -7 2 -21 0 -30z m-10 -75 c-2 -13 -4 -5 -4 17
-1 22 1 32 4 23 2 -10 2 -28 0 -40z m-10 -60 c-3 -8 -6 -5 -6 6 -1 11 2 17 5
13 3 -3 4 -12 1 -19z m7413 -52 c0 -12 -5 -7 -19 24 -11 24 -11 24 3 6 9 -11
16 -24 16 -30z m-7423 -8 c-3 -8 -6 -5 -6 6 -1 11 2 17 5 13 3 -3 4 -12 1 -19z
m7467 -104 c3 -8 2 -12 -4 -9 -6 3 -10 10 -10 16 0 14 7 11 14 -7z m-7497 -56
c-3 -8 -6 -5 -6 6 -1 11 2 17 5 13 3 -3 4 -12 1 -19z m7601 -209 c-3 -8 -7 -3
-11 10 -4 17 -3 21 5 13 5 -5 8 -16 6 -23z m-3775 -118 c8 -8 4 -24 -10 -53
-24 -51 -35 -103 -68 -345 -32 -236 -33 -270 -1 -284 21 -10 23 -15 14 -35
-10 -20 -8 -28 10 -44 12 -11 28 -20 37 -20 8 0 15 -3 15 -8 0 -9 83 -7 98 2
6 3 18 -1 27 -11 21 -21 68 -7 73 22 3 11 1 17 -3 13 -10 -10 -34 22 -29 37 5
11 89 13 100 2 10 -10 15 -79 19 -266 2 -134 6 -166 18 -173 15 -8 23 -55 31
-178 2 -25 8 -66 14 -91 8 -31 8 -57 2 -79 -5 -19 -6 -38 -1 -44 7 -10 17
-129 37 -459 8 -128 -11 -253 -77 -517 -32 -129 -59 -241 -59 -249 0 -8 -7
-23 -17 -33 -11 -12 -12 -18 -3 -18 8 0 10 -6 5 -17 -4 -10 -13 -54 -20 -98
-7 -44 -25 -127 -40 -185 -14 -58 -28 -118 -30 -135 -7 -69 -43 -111 -59 -70
-6 17 -36 21 -36 5 0 -5 -4 -10 -10 -10 -5 0 -7 7 -4 15 4 8 12 15 20 15 8 0
14 7 14 15 0 8 9 24 20 35 20 20 20 20 -5 20 -14 0 -24 -5 -22 -12 1 -8 -15
-13 -47 -14 -26 -2 -56 -10 -65 -18 -10 -9 -27 -16 -39 -16 -12 0 -22 -5 -22
-11 0 -13 -39 -2 -62 18 -19 17 -38 10 -38 -15 0 -15 -2 -15 -10 -2 -8 12 -10
11 -10 -8 0 -20 3 -22 38 -16 29 4 43 2 55 -11 22 -21 21 -34 0 -42 -14 -5 -9
-11 22 -25 30 -13 34 -18 18 -18 -12 0 -25 -4 -28 -10 -3 -5 -1 -10 5 -10 7 0
21 -11 32 -25 20 -26 38 -33 38 -15 0 6 -7 10 -15 10 -8 0 -15 5 -15 10 0 15
65 5 92 -14 34 -24 68 -21 68 6 0 17 3 19 12 10 8 -8 8 -15 -1 -25 -6 -8 -9
-22 -5 -31 4 -11 1 -16 -10 -16 -9 0 -16 6 -16 14 0 20 -43 29 -53 11 -5 -10
-16 -13 -33 -9 -28 7 -31 -3 -6 -22 16 -12 15 -15 -13 -38 -18 -15 -24 -25
-16 -26 22 0 -19 -29 -42 -30 -11 0 -17 -5 -14 -12 2 -7 10 -12 16 -10 7 1 31
4 54 7 23 2 56 7 73 10 37 8 50 -5 34 -34 -9 -18 -50 -32 -100 -36 -32 -2
-110 -28 -110 -36 0 -5 19 -7 43 -4 23 3 35 2 27 -1 -19 -9 -30 -26 -23 -37 2
-4 11 -3 19 4 12 10 16 8 21 -9 3 -12 12 -22 19 -22 23 0 16 -18 -8 -22 -12
-2 -23 -9 -26 -17 -6 -18 34 -5 59 20 23 23 24 30 4 23 -16 -7 -18 -3 -9 19 3
8 13 13 23 10 13 -3 18 -13 16 -36 -4 -62 -14 -77 -52 -77 -23 0 -33 -4 -30
-12 2 -7 0 -22 -6 -32 -8 -16 -6 -18 8 -13 9 4 23 7 31 7 20 0 17 18 -3 22
-12 3 -9 6 10 10 26 5 28 3 22 -16 -3 -11 -8 -37 -10 -56 -2 -19 -7 -51 -11
-70 -4 -19 -6 -41 -5 -48 1 -8 -5 -12 -16 -10 -13 2 -18 15 -21 48 -2 25 -8
52 -13 62 -10 19 4 33 24 22 8 -5 9 -4 2 4 -5 5 -19 12 -30 14 -12 2 -23 16
-30 38 -5 19 -13 40 -16 45 -7 11 -64 188 -79 245 -5 19 -19 66 -30 104 -12
38 -23 81 -25 95 -6 33 -10 52 -18 71 -4 8 -15 52 -26 96 -10 45 -23 90 -29
100 -22 44 -37 164 -20 164 6 0 4 6 -7 14 -13 9 -16 20 -12 36 3 13 1 30 -5
37 -8 10 -8 17 1 26 10 9 15 8 25 -5 15 -21 26 -13 26 19 0 14 -6 23 -15 23
-8 0 -15 5 -15 10 0 6 7 10 15 10 22 0 28 23 17 64 -9 31 -8 36 6 37 10 1 7 4
-7 8 -34 9 -39 30 -6 24 21 -5 25 -2 25 19 0 13 9 34 21 47 12 12 19 24 18 25
-2 2 -24 1 -49 -3 -31 -4 -40 -9 -27 -13 9 -4 17 -15 17 -24 0 -22 -19 -13
-38 19 -15 25 -15 27 3 41 15 10 19 24 17 54 -2 25 2 45 12 54 9 10 11 19 5
25 -9 9 -17 55 -18 106 -1 10 -9 17 -22 17 -12 0 -17 4 -14 11 4 6 13 8 20 5
9 -3 11 2 7 16 -2 11 -11 22 -18 25 -11 4 -11 7 0 18 10 10 11 26 6 55 -4 22
-3 43 1 46 5 3 9 10 9 15 0 6 -6 7 -12 3 -9 -5 -8 -2 1 9 12 15 12 19 -4 31
-13 9 -15 15 -7 20 17 10 15 36 -2 36 -8 0 -20 14 -28 30 -7 17 -19 30 -25 30
-7 0 -13 5 -13 12 0 6 -7 20 -17 30 -14 15 -14 22 -3 42 7 13 10 30 7 38 -4 9
-6 8 -6 -3 -1 -9 -8 -19 -16 -22 -12 -5 -14 40 -12 337 3 309 5 346 21 371 10
14 15 33 12 41 -4 9 -2 12 5 8 6 -4 15 0 20 7 5 8 3 16 -4 21 -16 10 -5 18 37
28 24 5 37 4 40 -4 2 -6 5 -3 5 7 1 10 -6 20 -14 23 -17 7 -21 34 -5 34 6 0
10 10 10 21 0 31 22 99 32 99 4 0 8 9 8 20 0 24 22 26 40 5 7 -8 19 -15 26
-15 8 0 14 -7 14 -15 0 -8 6 -15 13 -15 17 0 16 52 0 58 -7 2 -13 13 -13 24 0
15 5 18 23 13 21 -6 21 -5 3 9 -16 13 -17 18 -6 31 7 8 10 25 7 37 -5 19 5 64
44 185 5 17 14 56 19 85 6 29 15 76 20 103 6 28 13 80 15 118 3 37 11 80 19
95 17 32 11 72 -10 72 -8 0 -14 -4 -14 -8 0 -13 -53 -8 -58 6 -5 17 26 64 38
57 6 -4 11 -1 11 4 6 48 16 54 77 48 30 -3 60 -11 65 -16z m-4032 -184 c-10
-9 -11 -8 -5 6 3 10 9 15 12 12 3 -3 0 -11 -7 -18z m7944 -45 c-5 -5 -25 43
-25 61 1 7 7 -3 16 -22 8 -19 12 -36 9 -39z m-8002 -77 c-3 -9 -8 -14 -10 -11
-3 3 -2 9 2 15 9 16 15 13 8 -4z m8064 -77 c-3 -8 -6 -5 -6 6 -1 11 2 17 5 13
3 -3 4 -12 1 -19z m-8154 -123 c-3 -9 -8 -14 -10 -11 -3 3 -2 9 2 15 9 16 15
13 8 -4z m-22 -48 c-10 -9 -11 -8 -5 6 3 10 9 15 12 12 3 -3 0 -11 -7 -18z
m-41 -104 c-11 -17 -11 -17 -6 0 3 10 6 24 7 30 0 9 2 9 5 0 3 -7 0 -20 -6
-30z m4501 -17 c14 -15 11 -26 -6 -26 -8 0 -15 5 -15 10 0 6 -14 10 -31 10
-17 0 -28 4 -24 10 3 6 14 10 25 10 10 0 21 8 25 18 7 15 8 15 13 -3 2 -11 8
-24 13 -29z m3829 -6 c0 -13 -1 -13 -10 0 -5 8 -10 22 -10 30 0 13 1 13 10 0
5 -8 10 -22 10 -30z m50 -150 c0 -5 -2 -10 -4 -10 -3 0 -8 5 -11 10 -3 6 -1
10 4 10 6 0 11 -4 11 -10z m-4550 -171 c0 -11 -4 -18 -10 -14 -5 3 -7 12 -3
20 7 21 13 19 13 -6z m2270 -464 c0 -8 0 -18 1 -22 0 -4 -4 -9 -9 -11 -6 -2
-9 8 -8 23 1 26 16 36 16 10z m10 -101 c0 -8 -5 -12 -10 -9 -6 4 -8 11 -5 16
9 14 15 11 15 -7z m10 -78 c0 -3 -4 -8 -10 -11 -5 -3 -10 -1 -10 4 0 6 5 11
10 11 6 0 10 -2 10 -4z m0 -41 c0 -8 -4 -15 -10 -15 -5 0 -7 7 -4 15 4 8 8 15
10 15 2 0 4 -7 4 -15z m10 -55 c0 -5 -4 -10 -10 -10 -5 0 -10 5 -10 10 0 6 5
10 10 10 6 0 10 -4 10 -10z m-800 -504 c0 -3 -4 -8 -10 -11 -5 -3 -10 -1 -10
4 0 6 5 11 10 11 6 0 10 -2 10 -4z m-1510 -246 c0 -5 -5 -10 -11 -10 -5 0 -7
5 -4 10 3 6 8 10 11 10 2 0 4 -4 4 -10z m0 -130 c0 -5 -5 -10 -11 -10 -5 0 -7
5 -4 10 3 6 8 10 11 10 2 0 4 -4 4 -10z m-5 -40 c3 -5 -1 -10 -9 -10 -9 0 -16
5 -16 10 0 6 4 10 9 10 6 0 13 -4 16 -10z m55 -191 c0 -4 -7 -9 -15 -13 -8 -3
-15 -1 -15 3 0 5 -3 17 -6 26 -6 15 -4 15 15 4 11 -8 21 -17 21 -20z m324
-465 c23 -9 20 -24 -4 -24 -11 0 -20 7 -20 15 0 17 2 18 24 9z m40 -53 c10
-15 -31 -43 -53 -36 -24 7 -19 22 13 35 28 11 34 12 40 1z m-8 -57 c-11 -10
-23 -13 -38 -8 l-23 8 25 7 c44 12 53 11 36 -7z m-846 -74 c0 -5 -2 -10 -4
-10 -3 0 -8 5 -11 10 -3 6 -1 10 4 10 6 0 11 -4 11 -10z m903 -67 c-7 -2 -19
-2 -25 0 -7 3 -2 5 12 5 14 0 19 -2 13 -5z"/>
<path d="M4835 8880 c-18 -20 -18 -21 3 -27 23 -5 31 -23 11 -23 -6 0 -26 7
-45 16 -47 22 -226 16 -251 -8 -15 -16 -14 -17 8 -23 13 -3 40 -5 59 -3 26 2
34 -1 32 -11 -2 -11 6 -12 35 -8 44 8 103 -11 103 -31 0 -10 4 -11 13 -5 6 6
40 13 75 17 60 6 63 5 72 -19 11 -28 8 -27 73 -29 43 -1 47 0 47 22 0 30 -51
82 -81 82 -12 0 -44 16 -70 35 -57 41 -60 41 -84 15z m60 -80 c3 -5 1 -10 -4
-10 -6 0 -11 5 -11 10 0 6 2 10 4 10 3 0 8 -4 11 -10z"/>
<path d="M4466 8805 c-3 -8 -1 -15 4 -15 13 0 22 18 11 24 -5 3 -11 -1 -15 -9z"/>
<path d="M2989 8763 c-13 -10 -41 -27 -62 -38 -42 -21 -87 -68 -87 -91 0 -21
49 -38 75 -25 11 5 47 12 80 15 33 2 94 10 135 17 41 6 87 12 103 12 16 0 27
5 27 13 0 8 8 14 18 14 16 1 16 1 -1 14 -15 12 -16 14 -2 20 8 3 25 2 38 -3
32 -12 158 -7 182 6 16 9 17 13 5 16 -8 2 -31 10 -50 16 -58 21 -159 24 -225
7 -33 -8 -70 -13 -82 -10 -14 4 -32 -2 -50 -16 -24 -19 -29 -20 -39 -6 -6 9
-16 16 -22 16 -6 0 -9 9 -7 20 5 25 -5 25 -36 3z m91 -73 c0 -5 -5 -10 -11
-10 -5 0 -7 5 -4 10 3 6 8 10 11 10 2 0 4 -4 4 -10z"/>
<path d="M4491 8469 c-79 -21 -131 -45 -76 -35 96 19 88 21 120 -27 27 -41 35
-46 79 -52 44 -5 52 -3 77 21 15 14 30 37 33 50 9 35 27 30 86 -26 67 -63 95
-65 96 -5 1 49 -10 65 -47 65 -15 0 -39 4 -52 9 -13 5 -56 13 -95 16 -69 7
-70 7 -74 -16 -4 -30 -32 -31 -36 -1 -4 27 -14 27 -111 1z"/>
<path d="M3275 8400 c-22 -5 -69 -20 -104 -34 -36 -14 -74 -26 -86 -26 -28 0
-60 -37 -45 -55 6 -7 8 -20 4 -29 -4 -11 -1 -16 13 -16 33 0 81 20 79 34 0 7
19 30 44 50 l44 38 18 -24 c40 -53 59 -68 88 -68 17 0 30 5 30 10 0 6 13 10
29 10 25 0 31 7 52 53 12 28 25 56 27 60 2 5 -18 7 -44 5 -30 -2 -48 -7 -47
-15 3 -15 -24 -36 -37 -28 -5 3 -10 15 -10 26 0 10 -3 19 -7 18 -5 -1 -26 -5
-48 -9z"/>
<path d="M3490 8391 c15 -10 78 -16 69 -6 -3 2 -23 7 -45 10 -28 4 -35 3 -24
-4z"/>
<path d="M4350 8390 c0 -5 5 -10 11 -10 5 0 7 5 4 10 -3 6 -8 10 -11 10 -2 0
-4 -4 -4 -10z"/>
<path d="M3600 8344 c0 -8 5 -12 10 -9 6 3 10 10 10 16 0 5 -4 9 -10 9 -5 0
-10 -7 -10 -16z"/>
<path d="M4159 7683 c-13 -15 -11 -16 11 -10 14 4 32 7 40 7 13 0 13 1 0 10
-22 14 -36 12 -51 -7z"/>
<path d="M5320 7686 c0 -9 5 -16 10 -16 6 0 10 4 10 9 0 6 -4 13 -10 16 -5 3
-10 -1 -10 -9z"/>
<path d="M3750 7674 c0 -3 16 -12 35 -20 41 -17 68 -8 40 13 -18 13 -75 19
-75 7z"/>
<path d="M4420 7385 c0 -13 24 -55 32 -55 5 0 18 -16 29 -35 20 -33 42 -45 53
-27 8 14 -19 82 -36 87 -9 3 -19 12 -22 20 -5 13 -56 22 -56 10z"/>
<path d="M4350 7211 c-25 -3 -40 -8 -35 -11 9 -5 30 -5 113 -1 13 0 20 6 17
11 -7 11 -22 11 -95 1z"/>
<path d="M4625 6520 c-3 -5 -1 -10 4 -10 6 0 11 5 11 10 0 6 -2 10 -4 10 -3 0
-8 -4 -11 -10z"/>
<path d="M4540 6480 c0 -5 5 -10 10 -10 6 0 10 5 10 10 0 6 -4 10 -10 10 -5 0
-10 -4 -10 -10z"/>
<path d="M4315 3674 c22 -17 32 -17 40 -4 6 10 5 11 -34 15 -23 2 -24 2 -6
-11z"/>
<path d="M3985 3610 c-3 -5 -1 -10 4 -10 6 0 11 5 11 10 0 6 -2 10 -4 10 -3 0
-8 -4 -11 -10z"/>
<path d="M4449 2887 c-20 -15 -34 -57 -20 -57 17 0 13 -18 -9 -40 -11 -11 -20
-16 -20 -10 0 5 -7 7 -15 3 -14 -5 -14 -7 1 -24 9 -10 13 -22 10 -28 -4 -5 -2
-12 3 -16 6 -3 8 -12 4 -20 -10 -26 27 -16 39 10 10 21 8 28 -8 41 -18 15 -18
15 0 10 23 -8 45 19 46 57 0 17 -5 27 -15 27 -8 0 -15 9 -15 19 0 15 5 18 21
14 15 -4 20 -2 17 7 -6 19 -20 21 -39 7z"/>
<path d="M4357 2673 c-10 -10 -8 -53 2 -53 10 0 21 24 21 46 0 15 -12 19 -23
7z"/>
<path d="M4425 2570 c-3 -5 -1 -10 4 -10 6 0 11 5 11 10 0 6 -2 10 -4 10 -3 0
-8 -4 -11 -10z"/>
<path d="M4321 1381 c-17 -11 -6 -16 39 -20 23 -2 32 1 25 7 -16 16 -49 22
-64 13z"/>
<path d="M4353 1333 c9 -2 23 -2 30 0 6 3 -1 5 -18 5 -16 0 -22 -2 -12 -5z"/>
<path d="M4160 1301 c0 -10 19 -25 25 -20 1 2 -3 10 -11 17 -8 7 -14 8 -14 3z"/>
<path d="M4282 1300 c-20 -8 -21 -12 -10 -30 15 -24 34 -26 42 -5 3 8 17 15
32 15 22 0 25 2 14 15 -14 17 -43 18 -78 5z"/>
<path d="M4411 1264 c0 -11 3 -14 6 -6 3 7 2 16 -1 19 -3 4 -6 -2 -5 -13z"/>
<path d="M4091 1141 c-11 -7 -11 -9 0 -14 9 -3 5 -6 -7 -6 -33 -1 -38 -28 -7
-36 25 -6 48 10 37 26 -2 4 3 9 11 13 8 3 15 10 15 16 0 12 -30 13 -49 1z"/>
<path d="M4100 1056 c0 -2 7 -6 15 -10 8 -3 15 -1 15 4 0 6 -7 10 -15 10 -8 0
-15 -2 -15 -4z"/>
<path d="M4165 1000 c-3 -5 1 -10 9 -10 9 0 16 -4 16 -10 0 -5 7 -10 15 -10
19 0 19 7 1 26 -17 16 -32 18 -41 4z"/>
<path d="M4268 1003 c7 -3 16 -2 19 1 4 3 -2 6 -13 5 -11 0 -14 -3 -6 -6z"/>
<path d="M4185 880 c-3 -6 1 -7 9 -4 18 7 21 14 7 14 -6 0 -13 -4 -16 -10z"/>
</g>
</svg>
